<svg id="00d9aded-f6f3-4d1d-b54a-7698f170861a" data-name="Layer 1" xmlns="http://www.w3.org/2000/svg" viewBox="0 0 8.81 10.5"><title>music-apple</title><path d="M8.79,6.3A1.81,1.81,0,0,0,9,7.15a2.36,2.36,0,0,0,1.27,1.31,6.28,6.28,0,0,1-.87,1.71,2.17,2.17,0,0,1-1.52,1.08A2.41,2.41,0,0,1,7,11a2.79,2.79,0,0,0-1-.21,3,3,0,0,0-1,.23,2.24,2.24,0,0,1-.75.19,1.52,1.52,0,0,1-1.11-.56,6.54,6.54,0,0,1-.89-1.22,9.49,9.49,0,0,1-.54-1.15,6.26,6.26,0,0,1-.32-1.9A3.59,3.59,0,0,1,1.8,4.69a2.55,2.55,0,0,1,1-1,2.79,2.79,0,0,1,1.3-.38,3.75,3.75,0,0,1,1.15.28,2.39,2.39,0,0,0,.63.19,2.63,2.63,0,0,0,.59-.16l.7-.24A2.34,2.34,0,0,1,8,3.26a2.58,2.58,0,0,1,2,1A2.13,2.13,0,0,0,8.79,6.3ZM7.45,2.44v0a1.93,1.93,0,0,1-1.61.8,2.09,2.09,0,0,1,.58-1.69A2.32,2.32,0,0,1,7.15,1,2.11,2.11,0,0,1,8,.75,2.28,2.28,0,0,1,7.45,2.44Z" transform="translate(-1.41 -0.75)" style="fill:#5c6f86"/></svg>