<svg id="8f5395b5-6850-413f-96cd-ff419fdbf96c" data-name="Layer 1" xmlns="http://www.w3.org/2000/svg" viewBox="0 0 9 10.61"><title>music-itunes</title><path d="M9,10.16a2.71,2.71,0,0,1-.8.07,1.43,1.43,0,0,1-.73-.3A1.25,1.25,0,0,1,7,9.06a1.07,1.07,0,0,1,.38-.87,1.34,1.34,0,0,1,.68-.37,6.86,6.86,0,0,1,1-.21l.14,0a.59.59,0,0,0,.37-.18.28.28,0,0,0,.09-.17q0-.09,0-.42l0-3.23a.29.29,0,0,0-.1-.26.33.33,0,0,0-.3,0l-4.34.79a.57.57,0,0,0-.26.13.48.48,0,0,0-.07.27V9.58a2.27,2.27,0,0,1,0,.51v0a1.29,1.29,0,0,1-.71.91,2.14,2.14,0,0,1-.75.23,2.44,2.44,0,0,1-.75,0,1.25,1.25,0,0,1-.77-.46A1.19,1.19,0,0,1,1.31,10a1.22,1.22,0,0,1,.35-.77,2,2,0,0,1,.68-.38l1-.21.16,0a.67.67,0,0,0,.36-.16A5.07,5.07,0,0,0,4,6.93c0-.55,0-1.46,0-2.74a18,18,0,0,1,0-2,.4.4,0,0,1,.17-.31.44.44,0,0,1,.16-.1.33.33,0,0,1,.14,0l2.93-.54L9.89.69A.45.45,0,0,1,10.2.8a.44.44,0,0,1,.11.32V8.45a2.28,2.28,0,0,1,0,.56V9A1.42,1.42,0,0,1,9,10.16Z" transform="translate(-1.31 -0.69)" style="fill:#5c6f86"/></svg>