<svg id="02c46c36-614b-4f58-9bb7-1c4aaa5a6bec" data-name="Layer 1" xmlns="http://www.w3.org/2000/svg" viewBox="0 0 10.17 10.5"><title>music-amazon</title><path d="M9.19,10.2a6.87,6.87,0,0,1-1.38.7,6.5,6.5,0,0,1-2.12.35,5.71,5.71,0,0,1-2.22-.47,6.52,6.52,0,0,1-1.68-1,6.44,6.44,0,0,1-1-.92C.72,8.8.71,8.74.75,8.7a.11.11,0,0,1,.17,0l.09,0A13.14,13.14,0,0,0,3.07,9.82a7.13,7.13,0,0,0,2.84.54,9.14,9.14,0,0,0,3.75-1c.09-.05.16,0,.2,0s0,.15-.08.26A3.36,3.36,0,0,1,9.19,10.2Zm-5-5.89A2.34,2.34,0,0,0,2.63,6.56,2.13,2.13,0,0,0,3.14,8a2,2,0,0,0,1.22.62,2.76,2.76,0,0,0,1.47-.19,2.21,2.21,0,0,0,1.09-.9,9,9,0,0,0,1,1.1L9.31,7.36,9.12,7.2a2.44,2.44,0,0,1-.37-.47,1.14,1.14,0,0,1-.19-.61V2.67a1.49,1.49,0,0,0-.24-.75,2,2,0,0,0-.79-.8A3.34,3.34,0,0,0,5.91.75a3.91,3.91,0,0,0-1.71.37A2.81,2.81,0,0,0,3.14,2a2,2,0,0,0-.37,1.15l1.73.16a1.67,1.67,0,0,1,.78-1,1,1,0,0,1,.49-.14.79.79,0,0,1,.57.16.73.73,0,0,1,.23.48,2.84,2.84,0,0,1,0,.7v.28A6.43,6.43,0,0,0,4.18,4.31ZM6.29,6.87a.87.87,0,0,1-.67.34A1,1,0,0,1,4.91,7a.91.91,0,0,1-.29-.69A1.12,1.12,0,0,1,5.3,5.18,3,3,0,0,1,6.59,4.9v.94A1.56,1.56,0,0,1,6.29,6.87Zm3.93,3.58q-.09.11-.15.06s0-.07,0-.15a2.88,2.88,0,0,0,.23-.61c.11-.36.14-.59.07-.68s-.44-.13-1-.07L9,9a.06.06,0,0,1-.05,0c0-.06.06-.14.27-.23a1.89,1.89,0,0,1,.62-.18,3.52,3.52,0,0,1,.65,0,.66.66,0,0,1,.41.13.69.69,0,0,1,0,.41,2.43,2.43,0,0,1-.17.6A1.85,1.85,0,0,1,10.22,10.45Z" transform="translate(-0.73 -0.75)" style="fill:#5c6f86"/></svg>