<svg id="d09ef8e4-79a9-4ea3-a1ff-2cb3ca98bfd0" data-name="Layer 1" xmlns="http://www.w3.org/2000/svg" viewBox="0 0 11.63 11.63"><title>music-spotify</title><path d="M5.81.19A5.67,5.67,0,0,1,8.72,1a5.9,5.9,0,0,1,2.12,2.12A5.67,5.67,0,0,1,11.62,6a5.67,5.67,0,0,1-.78,2.91A5.9,5.9,0,0,1,8.72,11a5.67,5.67,0,0,1-2.91.78A5.66,5.66,0,0,1,2.91,11,5.9,5.9,0,0,1,.79,8.91,5.58,5.58,0,0,1,0,6,5.58,5.58,0,0,1,.79,3.09,5.9,5.9,0,0,1,2.91,1,5.66,5.66,0,0,1,5.81.19ZM9.54,5.41a.53.53,0,0,0,.37-.15.5.5,0,0,0,.17-.38.58.58,0,0,0-.31-.54,8.86,8.86,0,0,0-2.25-.85A11.32,11.32,0,0,0,5,3.21a9.47,9.47,0,0,0-2.77.38.54.54,0,0,0-.4.55A.55.55,0,0,0,2,4.52a.5.5,0,0,0,.38.17,1.05,1.05,0,0,0,.26-.05l0,0A9.17,9.17,0,0,1,6,4.41a7.72,7.72,0,0,1,3.21.91A.59.59,0,0,0,9.54,5.41ZM8.81,7.2a.44.44,0,0,0,.45-.45A.54.54,0,0,0,9,6.28,7.36,7.36,0,0,0,7.05,5.5a9.06,9.06,0,0,0-2.22-.27,8.81,8.81,0,0,0-2.28.3A.47.47,0,0,0,2.18,6a.43.43,0,0,0,.14.32.44.44,0,0,0,.33.13l.19,0,.09,0a7.39,7.39,0,0,1,3-.19,7.26,7.26,0,0,1,2.6.87l0,0A.59.59,0,0,0,8.81,7.2ZM8.18,8.74a.35.35,0,0,0,.25-.1.35.35,0,0,0,.1-.26.43.43,0,0,0-.06-.24A.65.65,0,0,0,8.3,8a7.48,7.48,0,0,0-5.56-.61A.41.41,0,0,0,2.53,8a.33.33,0,0,0,.26.1l.23,0,0,0a6.53,6.53,0,0,1,4.85.56A.51.51,0,0,0,8.18,8.74Z" transform="translate(0 -0.19)" style="fill:#5c6f86"/></svg>