<svg data-name="Layer 1" xmlns="http://www.w3.org/2000/svg" viewBox="0 0 10.17 10.5"><path d="M8.46 9.45a6.87 6.87 0 0 1-1.38.7 6.5 6.5 0 0 1-2.12.35 5.71 5.71 0 0 1-2.22-.47 6.52 6.52 0 0 1-1.68-1 6.44 6.44 0 0 1-1-.92c-.07-.06-.08-.12-.04-.16a.11.11 0 0 1 .17 0h.09a13.14 13.14 0 0 0 2.06 1.12 7.13 7.13 0 0 0 2.84.54 9.14 9.14 0 0 0 3.75-1c.09-.05.16 0 .2 0s0 .15-.08.26a3.36 3.36 0 0 1-.59.58zm-5-5.89A2.34 2.34 0 0 0 1.9 5.81a2.13 2.13 0 0 0 .51 1.44 2 2 0 0 0 1.22.62 2.76 2.76 0 0 0 1.47-.19 2.21 2.21 0 0 0 1.09-.9 9 9 0 0 0 1 1.1l1.39-1.27-.19-.16a2.44 2.44 0 0 1-.37-.47 1.14 1.14 0 0 1-.19-.61V1.92a1.49 1.49 0 0 0-.24-.75 2 2 0 0 0-.79-.8A3.34 3.34 0 0 0 5.18 0a3.91 3.91 0 0 0-1.71.37 2.81 2.81 0 0 0-1.06.88 2 2 0 0 0-.37 1.15l1.73.16a1.67 1.67 0 0 1 .78-1 1 1 0 0 1 .49-.14.79.79 0 0 1 .57.16.73.73 0 0 1 .23.48 2.84 2.84 0 0 1 0 .7v.28a6.43 6.43 0 0 0-2.39.52zm2.1 2.56a.87.87 0 0 1-.67.34 1 1 0 0 1-.71-.21.91.91 0 0 1-.29-.69 1.12 1.12 0 0 1 .68-1.13 3 3 0 0 1 1.29-.28v.94a1.56 1.56 0 0 1-.3 1.03zM9.49 9.7q-.09.11-.15.06v-.15A2.88 2.88 0 0 0 9.57 9c.11-.36.14-.59.07-.68s-.44-.13-1-.07h-.37a.06.06 0 0 1-.05 0c0-.06.06-.14.27-.23a1.89 1.89 0 0 1 .62-.18 3.52 3.52 0 0 1 .65 0 .66.66 0 0 1 .41.13.69.69 0 0 1 0 .41 2.43 2.43 0 0 1-.17.6 1.85 1.85 0 0 1-.51.72z" fill="#5c6f86"/></svg>