<svg data-name="Layer 1" xmlns="http://www.w3.org/2000/svg" viewBox="0 0 8.81 10.5"><path d="M7.38 5.55a1.81 1.81 0 0 0 .21.85 2.36 2.36 0 0 0 1.27 1.31 6.28 6.28 0 0 1-.87 1.71 2.17 2.17 0 0 1-1.52 1.08 2.41 2.41 0 0 1-.88-.25 2.79 2.79 0 0 0-1-.21 3 3 0 0 0-1 .23 2.24 2.24 0 0 1-.75.19 1.52 1.52 0 0 1-1.11-.56 6.54 6.54 0 0 1-.89-1.22A9.49 9.49 0 0 1 .3 7.53a6.26 6.26 0 0 1-.32-1.9 3.59 3.59 0 0 1 .41-1.69 2.55 2.55 0 0 1 1-1 2.79 2.79 0 0 1 1.3-.38 3.75 3.75 0 0 1 1.15.28 2.39 2.39 0 0 0 .63.19 2.63 2.63 0 0 0 .59-.16l.7-.24a2.34 2.34 0 0 1 .83-.12 2.58 2.58 0 0 1 2 1 2.13 2.13 0 0 0-1.21 2.04zM6.04 1.69a1.93 1.93 0 0 1-1.61.8A2.09 2.09 0 0 1 5.01.8a2.32 2.32 0 0 1 .73-.55A2.11 2.11 0 0 1 6.59 0a2.28 2.28 0 0 1-.55 1.69z" fill="#5c6f86"/></svg>