<svg data-name="Layer 1" xmlns="http://www.w3.org/2000/svg" viewBox="0 0 11.63 11.63"><path d="M5.81 0a5.67 5.67 0 0 1 2.91.81 5.9 5.9 0 0 1 2.12 2.12 5.67 5.67 0 0 1 .78 2.88 5.67 5.67 0 0 1-.78 2.91 5.9 5.9 0 0 1-2.12 2.09 5.67 5.67 0 0 1-2.91.78 5.66 5.66 0 0 1-2.9-.78A5.9 5.9 0 0 1 .79 8.72 5.58 5.58 0 0 1 0 5.81 5.58 5.58 0 0 1 .79 2.9 5.9 5.9 0 0 1 2.91.81 5.66 5.66 0 0 1 5.81 0zm3.73 5.22a.53.53 0 0 0 .37-.15.5.5 0 0 0 .17-.38.58.58 0 0 0-.31-.54 8.86 8.86 0 0 0-2.25-.85A11.32 11.32 0 0 0 5 3.02a9.47 9.47 0 0 0-2.77.38.54.54 0 0 0-.4.55.55.55 0 0 0 .17.38.5.5 0 0 0 .38.17 1.05 1.05 0 0 0 .26-.05A9.17 9.17 0 0 1 6 4.22a7.72 7.72 0 0 1 3.21.91.59.59 0 0 0 .33.09zm-.73 1.79a.44.44 0 0 0 .45-.45.54.54 0 0 0-.26-.47 7.36 7.36 0 0 0-1.95-.78 9.06 9.06 0 0 0-2.22-.27 8.81 8.81 0 0 0-2.28.3.47.47 0 0 0-.37.47.43.43 0 0 0 .14.32.44.44 0 0 0 .33.13h.28a7.39 7.39 0 0 1 3-.19 7.26 7.26 0 0 1 2.6.87.59.59 0 0 0 .28.07zm-.63 1.54a.35.35 0 0 0 .25-.1.35.35 0 0 0 .1-.26.43.43 0 0 0-.06-.24.65.65 0 0 0-.17-.14 7.48 7.48 0 0 0-5.56-.61.41.41 0 0 0-.21.61.33.33 0 0 0 .26.1h.23a6.53 6.53 0 0 1 4.85.56.51.51 0 0 0 .31.08z" fill="#5c6f86"/></svg>