<svg data-name="Layer 1" xmlns="http://www.w3.org/2000/svg" viewBox="0 0 9 10.61"><path d="M7.69 9.47a2.71 2.71 0 0 1-.8.07 1.43 1.43 0 0 1-.73-.3 1.25 1.25 0 0 1-.47-.87 1.07 1.07 0 0 1 .38-.87 1.34 1.34 0 0 1 .68-.37 6.86 6.86 0 0 1 1-.21h.14a.59.59 0 0 0 .37-.18.28.28 0 0 0 .09-.17V2.92a.29.29 0 0 0-.1-.26.33.33 0 0 0-.3 0l-4.34.79a.57.57 0 0 0-.26.13.48.48 0 0 0-.07.27v5.04a2.27 2.27 0 0 1 0 .51 1.29 1.29 0 0 1-.71.91 2.14 2.14 0 0 1-.75.23 2.44 2.44 0 0 1-.75 0 1.25 1.25 0 0 1-.77-.46 1.19 1.19 0 0 1-.3-.77 1.22 1.22 0 0 1 .35-.77 2 2 0 0 1 .68-.38l1-.21h.16a.67.67 0 0 0 .36-.16 5.07 5.07 0 0 0 .14-1.55V3.5a18 18 0 0 1 0-2 .4.4 0 0 1 .17-.31.44.44 0 0 1 .16-.1.33.33 0 0 1 .14 0L6.09.55 8.58 0a.45.45 0 0 1 .31.11.44.44 0 0 1 .11.32v7.33a2.28 2.28 0 0 1 0 .56v-.01a1.42 1.42 0 0 1-1.31 1.16z" fill="#5c6f86"/></svg>